HIERARCHY
ROOT Hips
{
	OFFSET -211.153198 91.653587 -35.738949
	CHANNELS 6 Xposition Yposition Zposition Zrotation Yrotation Xrotation 
	JOINT LeftUpLeg
	{
		OFFSET 0.103455 1.857827 10.548507
		CHANNELS 3 Zrotation Yrotation Xrotation
		JOINT LeftLeg
		{
			OFFSET 43.500000 -0.000031 0.000008
			CHANNELS 3 Zrotation Yrotation Xrotation
			JOINT LeftFoot
			{
				OFFSET 42.372192 0.000011 -0.000014
				CHANNELS 3 Zrotation Yrotation Xrotation
				JOINT LeftToe
				{
					OFFSET 17.299997 -0.000002 0.000013
					CHANNELS 3 Zrotation Yrotation Xrotation
					End Site
					{
						OFFSET 0.000000 0.000000 0.000000
					}
				}
			}
		}
	}
	JOINT RightUpLeg
	{
		OFFSET 0.103457 1.857826 -10.548499
		CHANNELS 3 Zrotation Yrotation Xrotation
		JOINT RightLeg
		{
			OFFSET 43.500046 -0.000019 0.000015
			CHANNELS 3 Zrotation Yrotation Xrotation
			JOINT RightFoot
			{
				OFFSET 42.372261 -0.000004 0.000013
				CHANNELS 3 Zrotation Yrotation Xrotation
				JOINT RightToe
				{
					OFFSET 17.299992 -0.000006 0.000004
					CHANNELS 3 Zrotation Yrotation Xrotation
					End Site
					{
						OFFSET 0.000000 0.000000 0.000000
					}
				}
			}
		}
	}
	JOINT Spine
	{
		OFFSET 6.901968 -2.603730 -0.000002
		CHANNELS 3 Zrotation Yrotation Xrotation
		JOINT Spine1
		{
			OFFSET 12.588100 -0.000001 0.000009
			CHANNELS 3 Zrotation Yrotation Xrotation
			JOINT Spine2
			{
				OFFSET 12.343201 0.000005 -0.000005
				CHANNELS 3 Zrotation Yrotation Xrotation
				JOINT Neck
				{
					OFFSET 25.832893 -0.000008 -0.000006
					CHANNELS 3 Zrotation Yrotation Xrotation
					JOINT Head
					{
						OFFSET 11.766606 0.000005 0.000008
						CHANNELS 3 Zrotation Yrotation Xrotation
						End Site
						{
							OFFSET 0.000000 0.000000 0.000000
						}
					}
				}
				JOINT LeftShoulder
				{
					OFFSET 19.745903 -1.480373 6.000100
					CHANNELS 3 Zrotation Yrotation Xrotation
					JOINT LeftArm
					{
						OFFSET 11.284123 -0.000007 -0.000024
						CHANNELS 3 Zrotation Yrotation Xrotation
						JOINT LeftForeArm
						{
							OFFSET 33.000053 0.000004 0.000036
							CHANNELS 3 Zrotation Yrotation Xrotation
							JOINT LeftHand
							{
								OFFSET 25.200006 0.000021 -0.000003
								CHANNELS 3 Zrotation Yrotation Xrotation
								End Site
								{
									OFFSET 0.000000 0.000000 0.000000
								}
							}
						}
					}
				}
				JOINT RightShoulder
				{
					OFFSET 19.746101 -1.480381 -6.000079
					CHANNELS 3 Zrotation Yrotation Xrotation
					JOINT RightArm
					{
						OFFSET 11.284133 -0.000015 -0.000008
						CHANNELS 3 Zrotation Yrotation Xrotation
						JOINT RightForeArm
						{
							OFFSET 33.000099 0.000016 0.000006
							CHANNELS 3 Zrotation Yrotation Xrotation
							JOINT RightHand
							{
								OFFSET 25.199781 0.000142 0.000425
								CHANNELS 3 Zrotation Yrotation Xrotation
								End Site
								{
									OFFSET 0.000000 0.000000 0.000000
								}
							}
						}
					}
				}
			}
		}
	}
}
MOTION
Frames: 5
Frame Time: 0.033333
102.914101 87.184937 -62.858318 94.225697 7.641141 83.835770 172.019489 -3.653598 171.811537 -41.229976 -6.110410 -1.929795 86.745499 0.902031 -3.173558 21.454553 0.003103 -0.000000 153.666525 10.885599 -175.085438 -67.168408 1.170756 -10.668916 68.694108 8.570510 2.128963 21.454555 -0.003110 -0.000015 10.129492 -0.530392 -0.127345 10.247936 -1.047450 -0.301189 9.929794 -1.049100 -0.294851 -17.197190 -5.975797 -0.085642 -14.904928 13.612940 -6.794574 -178.667162 -81.363324 -2.936045 12.282578 56.399177 54.604391 -52.007171 -14.429844 1.777916 6.383135 1.213298 33.677706 176.963494 74.632944 -1.678783 -35.507681 -47.680717 -3.165859 -83.025341 8.585357 -2.637881 -0.436509 -4.750512 -25.803661 
103.644402 86.741867 -62.147549 93.928208 7.921775 83.454018 172.198536 -4.030696 171.385852 -42.820303 -6.933839 -1.676083 88.132335 0.914359 -2.375228 21.454555 0.003095 0.000002 152.069613 13.368115 -172.364291 -70.648431 0.656258 -11.696480 66.561826 10.872379 5.761892 21.454562 -0.003108 -0.000018 10.010014 -0.542042 -0.070261 10.008520 -1.075987 -0.187148 9.690365 -1.076958 -0.180641 -15.470676 -6.743409 -0.626037 -15.320855 14.281654 -7.776117 177.259118 -80.918248 1.201029 -2.022619 55.610789 47.275663 -43.483392 -14.234459 1.502443 7.911857 4.530081 35.006895 176.193418 73.177827 -2.500922 -32.974313 -50.344655 -0.908776 -81.661509 9.535170 -2.644432 -0.138941 -3.607157 -28.741969 
103.983597 86.968391 -61.248211 93.746334 8.191423 84.149816 173.369599 -3.891908 170.879571 -42.093237 -6.539249 -1.196956 88.043782 0.639256 -1.997327 21.454551 0.003088 0.000002 152.825606 15.414403 -170.554372 -70.830988 0.997713 -12.394057 67.415039 11.648124 6.623348 21.454557 -0.003102 -0.000020 9.781074 -0.593906 0.025231 9.549792 -1.187885 0.001365 9.231624 -1.187726 0.008568 -13.948480 -7.372101 -1.781110 -14.415922 15.207449 -9.213211 173.725984 -80.597694 4.792026 -15.976475 56.134572 35.112520 -31.404933 -13.678103 1.172399 11.140667 6.860204 42.153636 178.240439 72.324340 -0.418500 -29.391653 -54.712892 0.054773 -77.409990 12.143916 -2.641908 0.074342 -1.189328 -30.307001 
104.070099 87.770393 -60.315819 93.459534 8.365044 85.740642 175.059033 -3.493608 172.473983 -39.477090 -6.378500 -1.469405 86.602755 0.783718 -2.090961 21.454551 0.003084 -0.000001 155.493682 16.779697 -169.077044 -67.994192 1.699571 -10.178202 72.667899 10.080937 8.249753 21.454562 -0.003108 -0.000019 9.449222 -0.623349 0.004705 8.886313 -1.245250 -0.038430 8.568140 -1.245311 -0.030907 -11.585574 -7.940469 -2.838694 -15.056401 16.510405 -10.841651 174.837529 -79.229976 3.698972 -27.519624 56.376084 17.156155 -20.306619 -13.310726 0.969614 14.325251 1.891292 54.249382 -178.429007 72.029126 2.999080 -26.160390 -59.155428 -0.145758 -70.121399 15.770818 -2.585892 -0.045582 2.411010 -32.029424 
103.930702 89.030388 -59.415798 92.658934 8.062144 87.314919 176.640344 -3.849190 173.905618 -35.955875 -6.064811 -1.620315 83.608783 0.768632 -2.400139 21.454553 0.003101 0.000000 159.008348 16.518218 -168.410526 -62.480139 2.067637 -5.290094 75.344780 6.162092 8.057508 21.454560 -0.003123 -0.000017 8.991313 -0.556573 -0.012509 7.970464 -1.110989 -0.063274 7.652286 -1.111215 -0.056547 -9.574242 -8.490548 -3.893322 -15.595733 17.606737 -12.396356 178.782114 -77.327638 -0.274048 -32.684026 56.387286 -1.132078 -20.577128 -14.254440 1.032902 16.818045 -6.805980 69.951526 -175.420896 71.851712 6.090019 -23.703207 -61.829529 -2.407105 -59.544626 19.459921 -2.418884 0.387730 6.994158 -29.753219 
